# xmcd
#
# Track frame offsets: 
#        150
#        17180
#        27529
#        41424
#        58689
#        72730
#        83502
#        98097
#        111764
#        128355
#        146543
#
# Disc length: 2038 seconds
#
# Revision: 0
# Processed by: cddbd v1.5.2PL0 Copyright (c) Steve Scherf et al.
# Submitted via: ExactAudioCopyFreeDBPlugin 1.0
#
DISCID=8f07f40b
DTITLE=The Little Prairie Pickers - Naturally in Minnesota
DYEAR=2012
DGENRE=Bluegrass
TTITLE0=Naturally In MN
TTITLE1=Little Town
TTITLE2=Trouble
TTITLE3=Burdened
TTITLE4=Awake My Soul
TTITLE5=Jordan
TTITLE6=Beauty Redefined
TTITLE7=Smarten Up
TTITLE8=Fallin' Farm
TTITLE9=I Saw the Light
TTITLE10=
EXTD=
EXTT0=
EXTT1=
EXTT2=
EXTT3=
EXTT4=
EXTT5=
EXTT6=
EXTT7=
EXTT8=
EXTT9=
EXTT10=
PLAYORDER=
